<?xml version="1.0" encoding="UTF-8" standalone="no"?>
<!-- Created with Inkscape (http://www.inkscape.org/) -->

<svg
   width="512"
   height="512"
   viewBox="0 0 135.46667 135.46667"
   version="1.1"
   id="svg5"
   xmlns="http://www.w3.org/2000/svg"
   xmlns:svg="http://www.w3.org/2000/svg">
  <defs
     id="defs2">
    <style
       id="style886">
        .site-header .wrapper svg:hover .iran-towers {
            fill: #FF7500;
         }
     </style>
  </defs>
  <path
     id="path1969"
     style="fill:#000000;fill-opacity:1;stroke-width:1.9789"
     d="m 61.688743,51.187574 c -0.656986,0 -0.945795,0.20475 -2.035019,1.445389 l -1.269171,1.445908 -2.581757,0.16123 -2.581754,0.161231 -0.152445,3.77548 c -0.355211,8.820963 -1.520044,23.522954 -1.889292,23.845058 -0.09374,0.08177 -8.329139,6.862638 -18.301208,15.068847 -0.967663,0.796311 -1.038228,0.854442 -1.984891,1.633492 1.611799,1.915211 -0.762443,5.179121 3.237464,5.829391 2.569034,0.41765 4.729584,-0.95517 6.766141,0.10442 3.857588,2.00704 6.164343,5.48006 6.986289,6.90739 2.358362,4.09536 2.902344,1.516 7.51972,2.75526 0.87017,-6.34037 2.490131,-14.24618 3.684014,-17.902781 1.413237,-4.32844 3.928509,-7.338663 7.44244,-8.907465 1.49759,-0.668602 2.131193,-0.545463 4.259173,0.829924 2.452844,1.585349 4.143743,3.658735 5.382615,6.599594 1.205653,2.862012 3.255661,12.328228 4.225584,19.440158 1.827522,-0.48602 8.664225,1.22372 10.579391,-0.97701 2.149275,-2.46973 1.009626,-5.52194 1.944273,-7.00252 2.027441,-3.21168 4.04275,-3.3356 8.94691,-4.64902 3.87445,-1.03765 0.51423,0.12693 3.12792,-2.975149 -0.10472,-0.08605 -0.16779,-0.138483 -0.27285,-0.22479 C 93.753008,89.539651 84.698321,82.097789 84.601039,82.013602 84.220946,81.684669 83.05288,67.04427 82.717952,58.414006 l -0.15503,-3.99252 -1.703256,-0.143661 c -0.936582,-0.07917 -2.082556,-0.144177 -2.54713,-0.144177 -0.755864,0 -0.981017,-0.155048 -2.138373,-1.473295 -1.117722,-1.273104 -1.398101,-1.472779 -2.067058,-1.472779 -0.49344,0 -0.774112,0.109418 -0.774112,0.301791 0,0.219726 -0.739521,0.37415 -2.719729,0.567923 -3.214267,0.314537 -8.159192,-0.02966 -8.159192,-0.567923 -3e-6,-0.191717 -0.278974,-0.301791 -0.765329,-0.301791 z" />
  <path
     id="path802"
     style="fill:#000000;fill-opacity:1;stroke-width:0.345707"
     class="cls-1"
     d="m 41.810885,29.701546 c -0.293851,0 -0.588078,0.196276 -0.588078,0.588079 v 8.776208 c -2.143522,0.292254 -3.741148,2.123205 -3.740338,4.28656 h -0.854213 c -0.783603,0 -0.783603,1.175639 0,1.175639 h 10.371461 c 0.783603,0 0.783603,-1.175639 0,-1.175639 h -0.871265 c 0.0013,-2.159167 -1.591138,-3.98757 -3.730006,-4.282943 v -8.779825 c 0,-0.391803 -0.293709,-0.588079 -0.587561,-0.588079 z m -7.28431,15.998508 c -0.325585,0 -0.58756,0.261975 -0.58756,0.58756 0,0.325589 0.261975,0.587563 0.58756,0.587563 h 14.557767 c 0.325589,0 0.587563,-0.261974 0.587563,-0.587563 0,-0.325585 -0.261974,-0.58756 -0.587563,-0.58756 z m -1.548743,2.347143 c -0.324469,7.8e-5 -0.587484,0.263094 -0.587561,0.587563 v 1.763199 h -1.25522 c -0.323261,7.3e-5 -0.585776,0.261203 -0.58756,0.584459 7.7e-5,0.324469 0.263091,0.587484 0.58756,0.587563 h 0.394293 l 6.671942,10.965739 h 7.208346 L 52.07796,51.569981 h 0.39429 c 0.32447,-7.7e-5 0.587486,-0.263093 0.587563,-0.587563 -0.0018,-0.323257 -0.264301,-0.584387 -0.587563,-0.584459 H 51.224266 V 48.63476 c -7.7e-5,-0.32447 -0.263093,-0.587486 -0.587563,-0.587563 z m -0.07596,3.522784 h 3.325378 l -1.662432,2.731098 z m 4.753197,0 h 3.38119 l -1.690338,2.765722 z m 4.809009,0 h 3.381189 l -1.690854,2.765722 z m 4.795057,0 h 3.435966 l -1.70739,2.831351 z m -10.319269,1.082104 1.717725,2.824633 -1.444874,2.361097 h -0.494543 l -1.465543,-2.420009 z m 4.822447,0 1.728576,2.821016 -1.46916,2.364714 H 41.47189 l -1.438156,-2.364714 z m 4.784719,0 1.728576,2.876309 -1.38286,2.309421 h -0.612365 l -1.437638,-2.364714 z m -7.201111,3.951179 0.749826,1.234551 h -1.500166 z m 4.808492,0 0.750343,1.234551 H 43.404589 Z M 38.204905,63.71446 37.430276,91.829543 46.201317,84.950376 45.409632,63.71446 Z" />
  <path
     class="cogwheel"
     d="m 67.933348,2.4940106 c -0.659961,0 -1.272201,0.3391184 -1.616396,0.8985622 l -3.411491,5.5233653 c -0.538122,0.04569 -1.076244,0.098486 -1.604213,0.1573753 L 56.873418,4.3246407 C 56.422614,3.8443922 55.756561,3.6301587 55.11183,3.756059 54.465069,3.8880511 53.932023,4.3388552 53.700529,4.9571878 l -2.274327,6.0675792 c -0.523907,0.152299 -1.045784,0.310689 -1.563599,0.474157 L 44.603222,7.7117632 C 44.0651,7.3259399 43.371633,7.2447139 42.763454,7.4985451 42.157305,7.7422229 41.71767,8.3006514 41.614106,8.9403059 L 40.568322,15.33685 c -0.477202,0.243678 -0.954405,0.507662 -1.431607,0.771647 l -5.899036,-2.69061 c -0.599041,-0.274138 -1.299615,-0.223371 -1.837737,0.142145 -0.548275,0.365517 -0.863026,0.984865 -0.842719,1.644826 l 0.233524,6.487924 c -0.416283,0.335057 -0.832566,0.680267 -1.248849,1.025477 L 23.22658,21.225732 c -0.639655,-0.152298 -1.309769,0.04061 -1.776818,0.507663 -0.467049,0.467049 -0.659961,1.137163 -0.507662,1.776817 l 1.482373,6.325472 c -0.34521,0.40613 -0.680267,0.822413 -1.015324,1.238696 l -6.487924,-0.233525 c -0.649807,-0.02031 -1.279309,0.294444 -1.644825,0.84272 -0.365517,0.538122 -0.416283,1.238696 -0.152299,1.837737 l 2.69061,5.899035 c -0.253831,0.46705 -0.517816,0.944252 -0.771647,1.431608 L 8.6465199,41.897739 C 7.9967122,41.999272 7.448437,42.435861 7.1946059,43.045056 6.950928,43.654251 7.032154,44.344671 7.407824,44.882793 l 3.78716,5.249228 c -0.162452,0.517815 -0.324903,1.045784 -0.477202,1.5636 l -6.0625027,2.275342 c -0.6091947,0.233524 -1.0660907,0.761493 -1.1980829,1.411301 -0.1218389,0.649807 0.091379,1.309768 0.578735,1.756511 l 4.7415654,4.436968 c -0.060919,0.538122 -0.1116857,1.076244 -0.1522987,1.614366 l -5.5639783,3.452104 c -0.5584284,0.34521 -0.8934855,0.954405 -0.8934855,1.614365 0,0.659961 0.3431797,1.273217 0.9036388,1.617412 l 5.5233653,3.421644 c 0.04569,0.538122 0.097471,1.066091 0.1563599,1.604213 l -4.7517186,4.426814 c -0.4832945,0.446743 -0.7005739,1.116857 -0.572643,1.759558 0.1218389,0.644731 0.5787349,1.177776 1.1980829,1.40724 l 6.0716404,2.264173 c 0.152299,0.527969 0.308659,1.045784 0.477203,1.5636 l -3.7871608,5.259381 c -0.3858233,0.538122 -0.4670493,1.228543 -0.2132181,1.837737 0.2538311,0.609195 0.8021063,1.045784 1.451914,1.149348 l 6.3965439,1.038677 c 0.246724,0.487355 0.507663,0.964558 0.771647,1.44176 l -2.69061,5.899035 c -0.274137,0.59904 -0.220325,1.29962 0.152299,1.84789 0.365517,0.54828 0.984865,0.86709 1.644826,0.84272 l 6.487923,-0.22743 c 0.339118,0.42643 0.680267,0.83764 1.025478,1.24885 l -1.488466,6.33562 c -0.152299,0.63966 0.03452,1.30977 0.502586,1.77682 0.467049,0.46705 1.137163,0.65996 1.786971,0.50766 l 6.325471,-1.48237 c 0.416284,0.35536 0.832567,0.69042 1.24885,1.02548 l -0.223372,6.49807 c -0.02031,0.65996 0.294444,1.27931 0.84272,1.64483 0.548275,0.36552 1.248849,0.42643 1.84789,0.1523 l 5.899036,-2.69061 c 0.477202,0.26398 0.954405,0.52797 1.44176,0.77164 l 1.045785,6.39655 c 0.101532,0.64981 0.538122,1.20823 1.147316,1.45191 0.609195,0.25383 1.309769,0.17261 1.837738,-0.21322 l 5.25938,-3.78716 c 0.527969,0.16246 1.045785,0.32491 1.573753,0.47721 l 2.264174,6.07164 c 0.223371,0.61934 0.761493,1.07624 1.401148,1.19808 0.639654,0.13199 1.309768,-0.0914 1.756511,-0.56858 l 4.426815,-4.74157 c 0.531015,0.0609 1.069137,0.11169 1.607259,0.16245 l 3.421643,5.52337 c 0.345211,0.55843 0.954405,0.89653 1.614366,0.89653 0.659961,0 1.272202,-0.34115 1.618428,-0.89958 l 3.421643,-5.52336 c 0.538122,-0.0467 1.076244,-0.0965 1.610305,-0.15738 l 4.426815,4.74665 c 0.446742,0.48532 1.112795,0.70057 1.756511,0.56858 0.649808,-0.12387 1.180822,-0.57874 1.411301,-1.19809 l 2.268235,-6.06148 c 0.517815,-0.1523 1.045784,-0.31475 1.5636,-0.47721 l 5.259381,3.78716 c 0.527968,0.37567 1.228542,0.4569 1.837737,0.21322 0.609195,-0.25383 1.035631,-0.8021 1.147317,-1.45191 l 1.035631,-6.39655 c 0.483294,-0.25383 0.964558,-0.51781 1.44176,-0.77164 l 5.899037,2.69061 c 0.59904,0.27414 1.29555,0.21322 1.8418,-0.1523 0.54827,-0.36552 0.8681,-0.99299 0.84272,-1.64483 l -0.22642,-6.49807 c 0.41933,-0.33506 0.83764,-0.67012 1.24885,-1.02548 l 6.32547,1.48237 c 0.63965,0.14722 1.31485,-0.0386 1.77885,-0.50766 0.46705,-0.46705 0.6559,-1.13716 0.50766,-1.77682 l -1.49253,-6.32547 c 0.34521,-0.41121 0.69042,-0.82241 1.02548,-1.24885 l 6.48793,0.22743 c 0.65996,0.0305 1.28946,-0.29444 1.65497,-0.84271 0.36552,-0.54828 0.41629,-1.24885 0.14215,-1.8479 l -2.69061,-5.899031 c 0.26398,-0.477202 0.51782,-0.954405 0.76149,-1.435669 l 6.39655,-1.045784 c 0.64981,-0.101532 1.19808,-0.538122 1.45191,-1.147317 0.25383,-0.609194 0.17261,-1.299615 -0.21322,-1.837737 l -3.777,-5.259381 c 0.16245,-0.517815 0.3249,-1.042738 0.4772,-1.5636 l 6.07164,-2.274327 c 0.61935,-0.233524 1.06609,-0.761493 1.19808,-1.411301 0.13199,-0.649807 -0.0914,-1.314845 -0.56858,-1.766664 l -4.75172,-4.426815 c 0.0609,-0.527969 0.11169,-1.066091 0.16245,-1.604213 l 5.52337,-3.421643 c 0.55843,-0.345211 0.89348,-0.954405 0.89348,-1.614366 0,-0.649808 -0.33505,-1.269156 -0.89348,-1.614366 l -5.52337,-3.411491 c -0.0508,-0.538122 -0.10153,-1.06609 -0.16245,-1.604212 l 4.75172,-4.426815 c 0.48736,-0.449789 0.70057,-1.116857 0.56858,-1.759557 -0.12793,-0.649808 -0.57873,-1.177777 -1.19808,-1.411302 l -6.06149,-2.274326 c -0.1523,-0.527969 -0.31475,-1.045785 -0.4772,-1.566646 l 3.78716,-5.249228 c 0.38582,-0.538122 0.46705,-1.228542 0.21322,-1.837737 -0.25383,-0.605134 -0.80211,-1.039692 -1.45192,-1.147317 l -6.39654,-1.039692 c -0.24368,-0.487356 -0.50766,-0.957451 -0.76759,-1.431608 l 2.69061,-5.909188 c 0.27414,-0.599042 0.22338,-1.299616 -0.14519,-1.837738 -0.36551,-0.548275 -0.98486,-0.873179 -1.64482,-0.845765 l -6.48793,0.227433 c -0.33505,-0.426436 -0.68026,-0.84272 -1.02547,-1.248849 l 1.49252,-6.325472 c 0.1523,-0.639654 -0.0406,-1.319922 -0.50766,-1.786971 -0.46705,-0.467049 -1.13716,-0.659961 -1.77682,-0.507662 l -6.32547,1.492527 c -0.41628,-0.345211 -0.83257,-0.690421 -1.24885,-1.025478 l 0.22337,-6.487924 c 0.0203,-0.659961 -0.29444,-1.279308 -0.84272,-1.644825 -0.54827,-0.365517 -1.24885,-0.418314 -1.84789,-0.146207 l -5.899032,2.69061 C 96.288315,15.878018 95.811113,15.61911 95.323757,15.365279 L 94.277973,8.9687349 C 94.173395,8.3189273 93.739851,7.770652 93.130656,7.5168209 92.521462,7.2629898 91.82698,7.3442157 91.292919,7.730039 l -5.279688,3.777007 C 85.495416,11.339518 84.973539,11.182142 84.449632,11.029844 L 82.185458,4.9683564 C 81.951933,4.3490085 81.420919,3.8921124 80.774157,3.7651969 80.124349,3.6362507 79.464388,3.8504841 79.0146,4.3337786 L 74.587785,9.075344 C 74.055755,9.0144245 73.518648,8.9636583 72.981542,8.9128921 L 69.554821,3.4078027 C 69.209611,2.8514048 68.600416,2.5143171 67.940455,2.5143171 Z m 8.840431,18.0758224 -6.715357,6.419896 c -1.423485,1.360535 -3.675474,1.309769 -5.036009,-0.115747 l -5.997522,-6.29095 -0.02031,0.003 -0.01015,-0.01015 c -1.116857,0.203065 -2.213407,0.456896 -3.289651,0.741187 -0.426436,0.111685 -0.842719,0.223371 -1.259003,0.34521 -1.187929,0.34521 -2.345399,0.72088 -3.492716,1.15747 -0.335057,0.121839 -0.670114,0.253831 -0.995018,0.385823 -1.12701,0.446743 -2.22356,0.944252 -3.309958,1.472221 -0.324904,0.152298 -0.639654,0.304597 -0.954405,0.467049 -1.15747,0.599041 -2.294633,1.248849 -3.391184,1.93927 -0.304597,0.192911 -0.599041,0.385823 -0.893485,0.578735 -0.984865,0.649807 -1.93927,1.330075 -2.873368,2.050955 -0.284291,0.213218 -0.558429,0.426436 -0.832567,0.639655 l -0.02031,0.01015 c -1.045784,0.842719 -2.040802,1.715898 -3.005361,2.639844 -0.233524,0.223371 -0.467049,0.446742 -0.69042,0.680267 -0.670114,0.659961 -1.319922,1.330075 -1.93927,2.030649 h 0.04061 c -2.416472,2.72107 -4.518194,5.69597 -6.254399,8.894243 0.131992,0.31475 0.05077,0.142145 0.456896,1.055937 l 3.929306,8.437347 c 0.832566,1.786971 0.05077,3.898846 -1.736205,4.731412 l -7.899225,3.675474 c -0.426436,0.203065 -0.406129,0.182759 -0.558428,0.263985 -0.172605,1.644826 -0.263984,3.330264 -0.263984,5.025856 0,2.75153 0.263984,5.452293 0.710727,8.081983 l 0.02031,0.121839 c 0.284291,1.685439 0.639655,3.350571 1.106704,4.97509 h 0.05077 c 1.59406,5.533519 4.172984,10.73198 7.604781,15.36186 h -0.101533 c 0.335057,0.446743 0.690421,0.873179 1.045784,1.319922 0.984865,1.238696 2.00019,2.436775 3.106893,3.573935 l 8.000757,-1.888497 c 1.918964,-0.456896 3.827774,0.731027 4.28467,2.649997 l 1.990036,8.48811 c 0.192912,0.79195 0.223371,0.9341 0.243678,1.03563 6.1021,2.79214 12.884468,4.3659 20.032352,4.3659 6.833134,0 13.331211,-1.44177 19.220093,-4.01054 0.111686,-0.33505 0.06092,-0.14214 0.34521,-1.05593 l 2.674365,-8.92471 c 0.563505,-1.8885 2.548464,-2.954586 4.436968,-2.386005 l 7.310339,2.203255 0.24774,-0.23353 0.0609,0.0203 c 1.61436,-1.634671 3.09673,-3.381029 4.45727,-5.22892 -0.0305,0.01015 -0.0609,0.01015 -0.0914,0.01015 5.36091,-7.269723 8.56934,-15.910135 9.24961,-24.916063 h 0.0508 c 0.0914,-1.177776 0.132,-2.375859 0.132,-3.573942 v -0.101533 c 0,-0.995018 -0.0437,-1.979882 -0.10458,-2.964747 -0.0162,-0.223372 -0.0305,-0.446743 -0.0508,-0.670114 -0.0203,-0.314751 -0.0406,-0.629501 -0.0711,-0.944252 -0.25383,-0.121839 -0.0508,-0.03046 -0.43659,-0.213218 l -8.48811,-3.823712 c -1.79713,-0.81226 -2.58908,-2.918043 -1.77682,-4.711106 l 3.58409,-7.94796 c 0.7818,-1.81337 0.42644,-0.964558 1.04579,-2.355553 l -0.0305,-0.06092 0.0203,-0.06092 c -0.35536,-0.615287 -0.72088,-1.216359 -1.09655,-1.813369 l -0.45689,-0.710728 c -0.65489,-1.00111 -1.35445,-1.965668 -2.08142,-2.90992 -0.24368,-0.324903 -0.4904,-0.649807 -0.74118,-0.974711 l -0.0102,-0.01015 c -0.72494,-0.893486 -1.49252,-1.748389 -2.28448,-2.591109 -0.35536,-0.385823 -0.72088,-0.761493 -1.0864,-1.137163 -0.77164,-0.771647 -1.57375,-1.512833 -2.39616,-2.227622 -0.416283,-0.365517 -0.852873,-0.731034 -1.282355,-1.086397 -0.842719,-0.690421 -1.705745,-1.350382 -2.5972,-1.979883 -0.441666,-0.308659 -0.888409,-0.612241 -1.340228,-0.9077 -0.944113,-0.619291 -1.901564,-1.218332 -2.88846,-1.776761 C 90.945678,25.572336 90.509088,25.341858 90.072499,25.118486 89.118094,24.620977 88.153536,24.153928 87.168671,23.717339 86.681315,23.50412 86.187867,23.301056 85.69645,23.108144 84.792811,22.75278 83.88105,22.417723 82.955074,22.113126 82.37837,21.920214 81.799635,21.737456 81.218869,21.575004 80.305077,21.31102 79.374025,21.067342 78.43688,20.864277 77.878452,20.732285 77.30987,20.610446 76.741288,20.49876 l -0.03757,-0.01015 h -0.02031 z m 19.832333,83.997797 c 2.193101,0 3.998348,1.80525 3.998348,3.99835 0,2.1931 -1.797124,4.00037 -3.990225,4.00037 -2.193101,0 -3.990226,-1.79712 -3.990226,-3.99022 0,-2.1931 1.807278,-3.99023 4.000379,-3.99023 h 0.01015 z M 38.864608,104.3138 h 0.002 c 2.193101,0 3.998348,1.80524 3.998348,3.99835 0,2.1931 -1.805247,4.00037 -3.998348,4.00037 h -0.002 c -2.193101,0 -3.995302,-1.80727 -3.996318,-3.99022 0,-2.1931 1.804232,-3.99023 3.996318,-3.99023 z M 114.3946,49.712692 c 0.50766,0.01015 1.02243,0.121839 1.51486,0.343179 0.98487,0.441667 1.69559,1.241742 2.04791,2.176856 0.35536,0.934099 0.35029,2.006281 -0.0914,2.991146 -0.10965,0.239617 -0.24063,0.461973 -0.38785,0.668084 l -0.0223,0.03046 c -0.14418,0.196973 -0.30663,0.378716 -0.48126,0.542184 -0.0305,0.02741 -0.0609,0.05077 -0.0894,0.07513 -0.10458,0.09138 -0.22033,0.170574 -0.33303,0.250785 -0.51274,0.355363 -1.09655,0.592949 -1.7159,0.676206 0,0.0041 0,0.01015 0.002,0.0132 -0.70768,0.101533 -1.44886,0.01625 -2.14944,-0.299521 -1.96973,-0.883332 -2.84291,-3.188118 -1.95551,-5.168001 0.41628,-0.913792 1.15341,-1.583906 2.01643,-1.959576 0.12895,-0.05077 0.26399,-0.101533 0.39801,-0.142146 0.14011,-0.04061 0.28226,-0.08123 0.42644,-0.111686 0.064,-0.01015 0.12793,-0.01015 0.19291,-0.02031 0.20611,-0.03046 0.41628,-0.05077 0.62645,-0.04061 z M 20.908594,49.584761 c 1.522987,-0.05077 2.999268,0.793984 3.682582,2.264174 0.913792,1.955515 0.06498,4.278577 -1.895611,5.188308 -0.541168,0.2518 -1.108734,0.355363 -1.669193,0.351302 0.0061,-0.02741 0.01015,-0.05381 0.01726,-0.08123 -1.462067,-0.02741 -2.863215,-0.878256 -3.492716,-2.31494 -0.548275,-1.233619 -0.40613,-2.599231 0.263984,-3.663291 0.111686,-0.174635 0.243678,-0.335057 0.37567,-0.492432 0.335057,-0.361456 0.741187,-0.667068 1.21839,-0.888409 0.497509,-0.226417 1.005171,-0.34521 1.512833,-0.362471 z m 50.25044,-29.704334 h -0.0081 c 0.775708,-1.451914 0.59295,-3.28762 -0.602087,-4.544592 -0.75134,-0.779769 -1.746358,-1.183868 -2.741376,-1.206206 h -0.01015 c -1.005172,-0.02335 -2.010343,0.335057 -2.792143,1.080306 -1.299615,1.238696 -1.543293,3.151567 -0.741187,4.660339 h -0.01015 c 0.162452,0.304597 0.365517,0.59295 0.619348,0.854903 1.492527,1.5636 3.959766,1.621474 5.523365,0.126916 0.304598,-0.284291 0.548276,-0.619348 0.741187,-0.964558 z"
     id="path119"
     style="clip-rule:evenodd;fill:#000000;fill-rule:evenodd;stroke-width:1.01532;stroke-linejoin:round;stroke-miterlimit:1.414" />
  <path
     style="fill:#000000;stroke-width:0.264583"
     id="path434"
     d="" />
</svg>
